
<svg width="1200" height="200" viewBox="0 0 1200 200" xmlns="http://www.w3.org/2000/svg">
    <defs>
        <g id="smiley">
            <circle cx="50" cy="50" r="40" fill="#ffcc00" />
            <circle cx="35" cy="40" r="5" fill="#000" />
            <circle cx="65" cy="40" r="5" fill="#000" />
            <path d="M30 60 Q50 80, 70 60" stroke="#000" stroke-width="3" fill="none" />
        </g>
    </defs>
    <use href="#smiley" x="0" y="0" />
    <use href="#smiley" x="100" y="0" />
    <use href="#smiley" x="200" y="0" />
    <use href="#smiley" x="300" y="0" />
    <use href="#smiley" x="400" y="0" />
    <use href="#smiley" x="500" y="0" />
    <use href="#smiley" x="600" y="0" />
    <use href="#smiley" x="700" y="0" />
    <use href="#smiley" x="800" y="0" />
    <use href="#smiley" x="900" y="0" />
    <use href="#smiley" x="1000" y="0" />
    <use href="#smiley" x="1100" y="0" />
    <use href="#smiley" x="0" y="100" />
    <use href="#smiley" x="100" y="100" />
    <use href="#smiley" x="200" y="100" />
    <use href="#smiley" x="300" y="100" />
    <use href="#smiley" x="400" y="100" />
    <use href="#smiley" x="500" y="100" />
    <use href="#smiley" x="600" y="100" />
    <use href="#smiley" x="700" y="100" />
    <use href="#smiley" x="800" y="100" />
    <use href="#smiley" x="900" y="100" />
    <use href="#smiley" x="1000" y="100" />
    <use href="#smiley" x="1100" y="100" />
</svg>
